<?xml version="1.0" standalone="no"?>
<!DOCTYPE svg PUBLIC "-//W3C//DTD SVG 20010904//EN"
 "http://www.w3.org/TR/2001/REC-SVG-20010904/DTD/svg10.dtd">
<svg version="1.0" xmlns="http://www.w3.org/2000/svg"
 width="602.000000pt" height="602.000000pt" viewBox="0 0 602.000000 602.000000"
 preserveAspectRatio="xMidYMid meet">
<metadata>
Created by potrace 1.14, written by Peter Selinger 2001-2017
</metadata>
<g transform="translate(0.000000,602.000000) scale(0.100000,-0.100000)"
fill="#000000" stroke="none">
<path d="M3443 5903 c-24 -36 -29 -166 -13 -304 17 -143 13 -149 -122 -218
-222 -115 -396 -253 -484 -386 -73 -110 -84 -153 -84 -317 0 -147 -8 -173 -74
-238 -64 -62 -64 -77 16 -250 34 -75 54 -99 119 -141 95 -60 157 -75 455 -107
150 -16 163 -20 211 -50 58 -37 84 -74 101 -144 10 -40 10 -54 -2 -83 -26 -60
-59 -67 -661 -125 -60 -6 -132 -15 -160 -21 -145 -28 -173 -35 -300 -69 -199
-53 -499 -185 -660 -290 -274 -179 -560 -526 -672 -815 -49 -126 -66 -215
-103 -524 -23 -196 -5 -468 42 -646 20 -73 129 -288 201 -395 40 -59 110 -144
162 -196 209 -209 550 -386 845 -439 253 -45 437 -46 710 -4 182 28 359 98
466 185 90 73 128 126 165 226 20 55 26 168 9 168 -5 0 -10 -11 -10 -25 0 -14
-4 -33 -9 -43 -5 -9 -17 -35 -27 -56 -27 -55 -114 -139 -179 -170 -120 -59
-213 -76 -421 -76 -231 0 -403 27 -629 98 -151 47 -376 181 -461 274 -110 121
-224 365 -263 563 -5 28 -15 74 -20 103 -14 69 -14 301 -1 378 23 127 34 172
63 259 37 113 65 176 115 262 127 217 326 412 542 531 55 31 74 52 46 52 -19
0 -46 38 -46 66 0 12 9 33 21 48 l20 26 607 0 c488 -1 610 -3 624 -14 28 -21
33 -69 12 -105 -10 -17 -16 -32 -13 -33 2 -2 33 -19 69 -37 284 -147 527 -425
648 -741 102 -263 116 -597 38 -885 -59 -216 -187 -437 -350 -600 -100 -101
-149 -142 -213 -183 -24 -15 -43 -30 -43 -33 0 -8 36 -21 100 -39 25 -7 56
-16 70 -20 27 -8 99 -23 195 -39 33 -6 143 -15 245 -21 257 -15 388 6 444 68
15 17 18 31 13 67 -6 43 -5 45 21 50 211 45 229 63 179 177 -35 78 -108 137
-189 152 -44 8 -70 37 -95 109 -15 43 -18 84 -18 242 0 105 6 217 12 250 7 33
17 94 23 135 25 163 49 280 100 495 43 182 48 203 59 265 28 153 35 209 61
485 13 141 13 677 0 803 -24 226 -43 359 -81 547 -19 93 -64 287 -80 340 -18
63 -70 221 -80 243 -5 12 -13 32 -18 45 -41 106 -162 320 -244 432 -108 147
-173 219 -370 408 -248 237 -348 307 -483 343 -88 23 -130 19 -151 -13z m-256
-1125 c55 -23 73 -48 73 -98 0 -90 -71 -155 -167 -154 -41 1 -60 7 -89 29 -35
26 -36 30 -32 76 11 110 122 187 215 147z"/>
<path d="M2900 2053 c0 -34 10 -77 31 -128 23 -59 23 -60 -46 -100 -36 -21
-65 -42 -65 -47 0 -19 -43 -6 -86 27 -118 90 -275 125 -414 93 -29 -7 -54 -18
-57 -25 -16 -41 183 -223 244 -223 27 0 7 -24 -43 -51 -94 -52 -225 -191 -202
-215 10 -9 121 -33 158 -34 45 0 155 23 202 43 38 16 121 70 146 94 19 18 21
17 78 -21 56 -38 116 -67 184 -89 48 -16 48 -17 35 -89 l-8 -38 40 0 c67 0
162 38 222 89 18 16 52 34 75 42 129 41 258 132 301 213 19 35 19 37 2 69 -59
109 -204 202 -372 238 -48 10 -70 22 -112 60 -74 66 -210 129 -281 129 -30 0
-32 -2 -32 -37z m622 -330 c25 -23 23 -50 -7 -69 -23 -15 -27 -15 -50 0 -29
19 -32 42 -8 68 20 22 41 23 65 1z"/>
</g>
</svg>
